<svg width="360" height="20" viewBox="0 0 360 20" fill="none" xmlns="http://www.w3.org/2000/svg">
<rect y="9.5" width="159.5" height="1" fill="#EAECF0"/>
<path d="M169.765 13.2699L173.444 7.36364H174.796V15H173.623V9.09375L169.964 15H168.591V7.36364H169.765V13.2699ZM176.269 15V13.9062H176.547C176.776 13.9062 176.967 13.8615 177.119 13.772C177.271 13.6792 177.394 13.5185 177.487 13.2898C177.583 13.0578 177.656 12.7363 177.706 12.3253C177.759 11.911 177.797 11.384 177.82 10.7443L177.959 7.36364H183.05V15H181.877V8.45739H179.073L178.953 11.1818C178.927 11.8082 178.871 12.3601 178.784 12.8374C178.702 13.3113 178.574 13.709 178.402 14.0305C178.233 14.352 178.007 14.594 177.725 14.7564C177.444 14.9188 177.091 15 176.667 15H176.269ZM186.376 13.2699L190.055 7.36364H191.407V15H190.234V9.09375L186.575 15H185.203V7.36364H186.376V13.2699Z" fill="#667085"/>
<rect x="200.5" y="9.5" width="159.5" height="1" fill="#EAECF0"/>
</svg>
